<?xml version="1.0" standalone="no"?>
<!DOCTYPE svg PUBLIC "-//W3C//DTD SVG 20010904//EN"
 "http://www.w3.org/TR/2001/REC-SVG-20010904/DTD/svg10.dtd">
<svg version="1.0" xmlns="http://www.w3.org/2000/svg"
 width="1600.000000pt" height="1600.000000pt" viewBox="0 0 1600.000000 1600.000000"
 preserveAspectRatio="xMidYMid meet">
<metadata>
Created by potrace 1.15, written by Peter Selinger 2001-2017
</metadata>
<g transform="translate(0.000000,1600.000000) scale(0.100000,-0.100000)"
fill="#000000" stroke="none">
<path d="M3210 9206 c-93 -21 -161 -47 -254 -94 -254 -130 -438 -360 -523
-653 l-27 -94 -4 -807 -3 -808 155 0 155 0 4 793 c3 781 3 793 24 854 122 347
414 548 746 511 277 -30 501 -219 587 -493 21 -70 21 -75 20 -853 0 -430 2
-798 6 -817 l6 -35 154 0 153 0 3 803 3 802 28 80 c42 119 100 210 191 300 65
65 99 90 176 128 52 25 118 51 145 57 72 16 249 14 320 -5 202 -52 397 -224
469 -412 51 -134 51 -134 51 -970 l0 -783 158 0 157 0 0 763 c0 813 -4 898
-50 1037 -63 192 -195 377 -353 495 -303 229 -710 267 -1042 98 -136 -69 -266
-178 -354 -295 -24 -32 -46 -58 -50 -58 -3 0 -17 19 -31 42 -36 60 -185 208
-258 257 -88 59 -213 117 -307 142 -99 27 -366 36 -455 15z"/>
<path d="M7265 9190 c-161 -29 -350 -106 -491 -200 -100 -67 -256 -222 -321
-320 -149 -222 -214 -435 -214 -695 0 -157 10 -233 47 -361 95 -330 343 -617
661 -766 182 -86 313 -113 533 -112 144 0 179 4 273 27 60 15 115 30 122 35
10 5 1 39 -37 147 -28 77 -51 141 -53 143 -1 2 -40 -7 -86 -20 -71 -19 -108
-22 -234 -22 -133 1 -160 4 -240 28 -267 80 -474 255 -591 501 -42 88 -84 231
-84 288 l0 27 470 0 470 0 0 155 0 155 -456 0 -456 0 6 32 c10 51 68 178 111
243 51 76 143 175 215 230 224 172 535 232 810 156 41 -12 75 -19 76 -18 5 5
104 269 104 277 0 10 -43 26 -140 52 -59 16 -115 21 -260 23 -102 2 -207 0
-235 -5z"/>
</g>
</svg>
